<?xml version="1.0" encoding="UTF-8" standalone="no"?>
<!-- Created with Inkscape (http://www.inkscape.org/) -->

<svg
   width="594mm"
   height="841mm"
   viewBox="0 0 2245.0393 3178.5828"
   version="1.1"
   id="svg1"
   inkscape:version="1.3.2 (091e20e, 2023-11-25, custom)"
   sodipodi:docname="zīmējums.svg"
   xmlns:inkscape="http://www.inkscape.org/namespaces/inkscape"
   xmlns:sodipodi="http://sodipodi.sourceforge.net/DTD/sodipodi-0.dtd"
   xmlns:xlink="http://www.w3.org/1999/xlink"
   xmlns="http://www.w3.org/2000/svg"
   xmlns:svg="http://www.w3.org/2000/svg">
  <sodipodi:namedview
     id="namedview1"
     pagecolor="#5d7cff"
     bordercolor="#000000"
     borderopacity="0.25"
     inkscape:showpageshadow="2"
     inkscape:pageopacity="0.0"
     inkscape:pagecheckerboard="0"
     inkscape:deskcolor="#d1d1d1"
     inkscape:document-units="mm"
     inkscape:zoom="0.25829122"
     inkscape:cx="1120.8279"
     inkscape:cy="1556.3827"
     inkscape:window-width="1346"
     inkscape:window-height="1040"
     inkscape:window-x="208"
     inkscape:window-y="0"
     inkscape:window-maximized="0"
     inkscape:current-layer="layer1" />
  <defs
     id="defs1">
    <rect
       x="61.945582"
       y="2195.1966"
       width="398.77469"
       height="120.01957"
       id="rect10" />
    <rect
       x="379.41669"
       y="700.7594"
       width="1664.7875"
       height="425.87588"
       id="rect2" />
    <rect
       x="193.57994"
       y="212.93794"
       width="1823.5231"
       height="720.11739"
       id="rect1" />
  </defs>
  <g
     inkscape:label="Slānis 1"
     inkscape:groupmode="layer"
     id="layer1">
    <text
       xml:space="preserve"
       id="text1"
       style="font-style:normal;font-variant:normal;font-weight:normal;font-stretch:normal;font-size:266.667px;font-family:Elephant;-inkscape-font-specification:'Elephant, Normal';font-variant-ligatures:normal;font-variant-caps:normal;font-variant-numeric:normal;font-variant-east-asian:normal;white-space:pre;shape-inside:url(#rect1);fill:#01057b;fill-rule:evenodd;stroke:#000000"
       transform="matrix(1.1068546,0,0,1.4427343,-166.16362,311.18701)"><tspan
         x="193.58008"
         y="455.34475"
         id="tspan3">Autortiesību</tspan></text>
    <text
       xml:space="preserve"
       id="text2"
       style="font-style:normal;font-variant:normal;font-weight:normal;font-stretch:normal;font-size:293.333px;font-family:Elephant;-inkscape-font-specification:'Elephant, Normal';font-variant-ligatures:normal;font-variant-caps:normal;font-variant-numeric:normal;font-variant-east-asian:normal;white-space:pre;shape-inside:url(#rect2);fill:#01057b;fill-rule:evenodd;stroke:#000000"
       transform="matrix(1.0233371,0,0,1.0699948,142.00364,249.38529)"><tspan
         x="379.41602"
         y="967.40712"
         id="tspan4">aizsardzība</tspan></text>
    <path
       id="path2"
       style="fill:#01057b;fill-rule:evenodd;stroke:#000000;stroke-width:1.01851"
       d="M 1920.3294,65.80843 A 321.31655,305.85576 0 0 0 1599.014,371.66497 321.31655,305.85576 0 0 0 1920.3294,677.51973 321.31655,305.85576 0 0 0 2241.6468,371.66497 321.31655,305.85576 0 0 0 1920.3294,65.80843 Z m 0,96.26744 A 216.14036,205.74033 0 0 1 2136.4699,367.81634 216.14036,205.74033 0 0 1 1920.3294,573.55681 216.14036,205.74033 0 0 1 1704.189,367.81634 216.14036,205.74033 0 0 1 1920.3294,162.07587 Z m 0,61.90111 a 147.07065,139.99405 0 0 0 -147.0692,139.99261 147.07065,139.99405 0 0 0 147.0692,139.99461 147.07065,139.99405 0 0 0 145.3667,-118.83367 h -94.0729 a 58.604905,55.785014 0 0 1 -55.335,38.47134 58.604905,55.785014 0 0 1 -58.6054,-55.78364 58.604905,55.785014 0 0 1 58.6054,-55.78543 58.604905,55.785014 0 0 1 54.5622,35.51536 v -4.73761 h 94.7702 A 147.07065,139.99405 0 0 0 1920.3294,223.97698 Z" />
    <path
       id="path5"
       style="fill:#f2f3ff;fill-opacity:1;fill-rule:evenodd;stroke:#000000"
       d="m 278.75461,1676.4018 10e-6,307.1094 a 60.009781,96.78997 71.382473 0 0 -81.10354,1.8866 60.009781,96.78997 71.382473 0 0 -72.5664,87.7715 60.009781,96.78997 71.382473 0 0 110.88282,25.9688 60.009781,96.78997 71.382473 0 0 72.56642,-87.7695 60.009781,96.78997 71.382473 0 0 -2.67775,-5.834 l -1e-5,-329.1329 z" />
    <path
       id="rect5"
       style="fill:#f2f3ff;fill-opacity:1;fill-rule:evenodd;stroke:#000000"
       d="m 723.98803,1680.2747 c -38.6074,0 -69.6895,31.0801 -69.6895,69.6875 v 278.7559 c 0,30.5942 19.5509,56.396 46.8652,65.8164 h 197.0469 v -379.416 c 0,-5.3332 0.6124,-10.5125 1.7539,-15.4863 h -13.3691 v -18.8887 c -2.5446,-0.2847 -5.1202,-0.4688 -7.7442,-0.4688 z m 139.3769,50.3301 c 2.1449,0 3.8711,1.7263 3.8711,3.8711 v 332.9571 c 0,2.1448 -1.7262,3.873 -3.8711,3.873 v 3.8711 c 0,2.1449 -1.7262,3.8711 -3.8711,3.8711 h -131.6347 -11.6153 c -2.1449,0 -3.8711,-1.7262 -3.8711,-3.8711 v -0.012 a 34.844391,32.908592 0 0 1 -19.3574,-29.0254 34.844391,32.908592 0 0 1 19.3574,-29.0254 v -3.8828 c 0,-2.1449 1.7262,-3.8711 3.8711,-3.8711 h 143.25 v -274.8848 c 0,-2.1448 1.7262,-3.8711 3.8711,-3.8711 z" />
    <text
       xml:space="preserve"
       id="text10"
       style="font-style:normal;font-variant:normal;font-weight:normal;font-stretch:normal;font-size:93.3333px;font-family:Elephant;-inkscape-font-specification:'Elephant, Normal';font-variant-ligatures:normal;font-variant-caps:normal;font-variant-numeric:normal;font-variant-east-asian:normal;white-space:pre;shape-inside:url(#rect10);fill:#01057b;fill-opacity:1;fill-rule:evenodd;stroke:#000000"
       transform="translate(34.844392,-81.303577)"><tspan
         x="61.945312"
         y="2280.0397"
         id="tspan5">Audio</tspan></text>
    <text
       xml:space="preserve"
       style="font-style:normal;font-variant:normal;font-weight:normal;font-stretch:normal;font-size:93.3333px;font-family:Elephant;-inkscape-font-specification:'Elephant, Normal';font-variant-ligatures:normal;font-variant-caps:normal;font-variant-numeric:normal;font-variant-east-asian:normal;fill:#01057b;fill-opacity:1;fill-rule:evenodd;stroke:#000000"
       x="538.15228"
       y="2199.0681"
       id="text11"><tspan
         sodipodi:role="line"
         id="tspan11"
         x="538.15228"
         y="2199.0681">Literatūrai</tspan></text>
    <text
       xml:space="preserve"
       style="font-style:normal;font-variant:normal;font-weight:normal;font-stretch:normal;font-size:93.3333px;line-height:0.6;font-family:Elephant;-inkscape-font-specification:'Elephant, Normal';font-variant-ligatures:normal;font-variant-caps:normal;font-variant-numeric:normal;font-variant-east-asian:normal;fill:#d0eafc;fill-opacity:1;fill-rule:evenodd;stroke:#000000"
       id="text12"
       transform="rotate(-173.17092,1918.1115,361.75584)"
       inkscape:transform-center-x="-166.03362"
       inkscape:transform-center-y="204.3956"><textPath
         xlink:href="#path2"
         id="textPath12"><tspan
           id="tspan12">Copyright</tspan></textPath></text>
    <path
       id="rect12"
       style="fill:#ffffff;fill-opacity:1;fill-rule:evenodd;stroke:#000000"
       d="m 1529.2828,1675.7264 v 46.0684 a 156.85454,156.85454 0 0 1 112.3301,150.123 156.85454,156.85454 0 0 1 -112.3301,150.375 v 53.8828 a 207.13054,207.13054 0 0 0 154.8633,-200.3867 207.13054,207.13054 0 0 0 -154.8633,-200.0625 z m -50.1054,39.8067 -87.6114,87.0586 -17.1699,17.0605 h -112.2558 v 131.6328 h 114.7422 l 18.2988,15.4649 91.2265,77.1035 -3.6152,-164.1602 z m 42.3613,57.3144 v 25.8028 a 124.06279,103.13194 0 0 1 49.5,82.0507 124.06279,103.13194 0 0 1 -49.5,82.3418 v 32.166 a 151.76821,126.16312 0 0 0 81.207,-111.1796 151.76821,126.16312 0 0 0 -81.207,-111.1817 z" />
    <text
       xml:space="preserve"
       style="font-style:normal;font-variant:normal;font-weight:normal;font-stretch:normal;font-size:93.3333px;line-height:0.6;font-family:Elephant;-inkscape-font-specification:'Elephant, Normal';font-variant-ligatures:normal;font-variant-caps:normal;font-variant-numeric:normal;font-variant-east-asian:normal;fill:#01057b;fill-opacity:1;fill-rule:evenodd;stroke:#000000"
       x="1145.9932"
       y="2202.9397"
       id="text15"><tspan
         sodipodi:role="line"
         id="tspan15"
         x="1145.9932"
         y="2202.9397">Video &amp; filmas</tspan></text>
    <path
       id="path5-9"
       style="fill:#f2f3ff;fill-opacity:1;fill-rule:evenodd;stroke:#000000"
       d="m 2086.4915,1666.6939 v 307.1094 a 60.009781,96.78997 71.382473 0 0 -81.1035,1.8866 60.009781,96.78997 71.382473 0 0 -72.5664,87.7715 60.009781,96.78997 71.382473 0 0 110.8828,25.9688 60.009781,96.78997 71.382473 0 0 72.5664,-87.7695 60.009781,96.78997 71.382473 0 0 -2.6777,-5.834 v -329.1329 z" />
    <text
       xml:space="preserve"
       style="font-style:normal;font-variant:normal;font-weight:normal;font-stretch:normal;font-size:93.3333px;line-height:0.6;font-family:Elephant;-inkscape-font-specification:'Elephant, Normal';font-variant-ligatures:normal;font-variant-caps:normal;font-variant-numeric:normal;font-variant-east-asian:normal;fill:#01057b;fill-opacity:1;fill-rule:evenodd;stroke:#000000"
       x="1873.8539"
       y="2199.0684"
       id="text16"><tspan
         sodipodi:role="line"
         id="tspan16"
         x="1873.8539"
         y="2199.0684">Mūzika</tspan></text>
    <g
       id="g16"
       transform="matrix(0.62227373,0.31144485,-0.31144485,0.62227373,1290.149,670.12188)">
      <path
         id="rect16"
         style="fill:#ffffff;fill-opacity:1;fill-rule:evenodd;stroke:#000000;stroke-width:3.19299"
         d="m 916.58502,2490.9454 -106.07813,72.6953 -106.07812,72.6973 109.57023,63.4863 109.57037,63.4844 -3.49219,-136.1817 z M 711.28619,2650.3204 91.065485,3582.6017 287.58496,3695.2306 907.8077,2762.9493 Z" />
      <path
         sodipodi:type="star"
         style="fill:#01057b;fill-opacity:1;fill-rule:evenodd;stroke:#000000"
         id="path16"
         inkscape:flatsided="false"
         sodipodi:sides="3"
         sodipodi:cx="1076.3044"
         sodipodi:cy="2512.6677"
         sodipodi:r1="45.150215"
         sodipodi:r2="22.575106"
         sodipodi:arg1="1.0303768"
         sodipodi:arg2="2.0775744"
         inkscape:rounded="0"
         inkscape:randomized="0"
         d="m 1099.534,2551.3837 -34.1867,-18.9783 -34.1867,-18.9783 33.529,-20.1174 33.5291,-20.1174 0.6577,39.0957 z"
         inkscape:transform-center-x="10.957117"
         inkscape:transform-center-y="-0.37971176"
         transform="translate(-181.96515,11.614797)" />
    </g>
  </g>
</svg>
